<svg width="18" height="20" viewBox="0 0 18 20" fill="none" xmlns="http://www.w3.org/2000/svg">
<path d="M0.75 6.09508C0.75 4.42077 2.10729 3.06348 3.7816 3.06348H14.2184C15.8927 3.06348 17.25 4.42077 17.25 6.09508V7.53961V16.2185C17.25 17.8928 15.8927 19.2501 14.2184 19.2501H3.7816C2.10729 19.2501 0.75 17.8928 0.75 16.2185V7.53961V6.09508Z" stroke="#A4A4AE" stroke-width="1.5"/>
<path d="M5.24219 4.56704V1" stroke="#A4A4AE" stroke-width="1.5" stroke-linecap="round"/>
<path d="M12.7734 4.56704V1" stroke="#A4A4AE" stroke-width="1.5" stroke-linecap="round"/>
<rect x="3.125" y="9.74121" width="2.95082" height="2.97253" rx="0.75632" fill="#A4A4AE"/>
<rect x="3.125" y="13.708" width="2.95082" height="2.97253" rx="0.75632" fill="#A4A4AE"/>
<rect x="7.53906" y="9.74121" width="2.95082" height="2.97253" rx="0.75632" fill="#A4A4AE"/>
<rect x="7.53906" y="13.708" width="2.95082" height="2.97253" rx="0.75632" fill="#A4A4AE"/>
<rect x="11.9453" y="9.74121" width="2.95082" height="2.97253" rx="0.75632" fill="#A4A4AE"/>
<rect x="11.9453" y="13.708" width="2.95082" height="2.97253" rx="0.75632" fill="#A4A4AE"/>
</svg>
