<svg width="112" height="22" viewBox="0 0 112 22" fill="none" xmlns="http://www.w3.org/2000/svg">
<path d="M18.4846 19.6534C16.5428 21.1097 14.1 21.9771 11.4451 21.9771C5.12405 21.9771 0 17.0574 0 10.9885C0 4.91966 5.12405 0 11.4451 0C14.1145 0 16.57 0.876926 18.5163 2.34717C15.8352 4.35853 14.1108 7.49128 14.1108 11.012C14.1108 14.5328 15.8216 17.6412 18.4846 19.6525V19.6534Z" fill="#EB001B"/>
<path d="M37.0007 11.012C37.0007 17.0809 31.8767 22.0005 25.5557 22.0005C22.8872 22.0005 20.4316 21.1236 18.4844 19.6534C21.1656 17.642 22.8899 14.5084 22.8899 10.9885C22.8899 7.46861 21.1791 4.35935 18.5161 2.34799C20.4579 0.891664 22.9017 0.0234375 25.5557 0.0234375C31.8767 0.0234375 37.0007 4.9431 37.0007 11.012Z" fill="#F79E1B"/>
<path d="M22.8906 10.9882C22.8906 14.508 21.1663 17.6417 18.4851 19.653C15.8212 17.6408 14.1113 14.5185 14.1113 11.0125C14.1113 7.50656 15.8357 4.35902 18.5168 2.34766C21.1799 4.35989 22.8906 7.4822 22.8906 10.9882Z" fill="#FF5A00"/>
<g clip-path="url(#clip0_1241_1904)">
<path d="M69.5663 1.34375L64.5792 14.3807L62.5698 3.32842C62.3606 2.17657 61.3973 1.34375 60.2753 1.34375H52.4193C52.1881 1.34375 52 1.54028 52 1.78263C52 2.00384 52.1586 2.19067 52.3686 2.21711C54.9879 2.55024 56.3882 2.82872 57.4891 4.95087C58.6405 7.16996 59.5237 13.2324 61.4428 20.6563H66.6417L74.6285 1.34375H69.5655H69.5663Z" fill="#1534CC"/>
<path d="M76.8501 1.34375L72.9512 20.6563H77.4777L81.3767 1.34375H76.8501Z" fill="#1534CC"/>
<path d="M90.4821 9.18454C88.8886 8.41518 87.4934 7.72424 87.4934 6.53362C87.4934 5.6206 88.4483 4.67057 90.4281 4.67057C92.176 4.62563 93.729 5.26809 94.3482 5.62413L95.7029 2.06195C94.7809 1.56843 93.3157 1 90.7875 1C86.6338 1 83.0951 3.31162 83.0951 7.31973C83.0951 10.0905 85.3313 11.5984 87.4672 12.5749C89.3281 13.4332 90.1827 14.1127 90.1827 15.1579C90.1827 16.6526 88.6862 17.3233 87.1712 17.3233C85.2124 17.3233 83.446 16.7046 82.1975 15.9194L80.7188 19.3978C81.7361 20.1892 83.8087 21.0009 86.6152 21.0009C90.9284 21.0009 94.624 18.8347 94.624 14.4414C94.624 11.8751 92.9749 10.3514 90.4813 9.18542L90.4821 9.18454Z" fill="#1534CC"/>
<path d="M108.185 1.34375H103.787C102.909 1.34375 102.118 1.89632 101.781 2.74324L94.6699 20.6563H99.6149L100.672 17.8441H107.002L107.517 20.6563H111.999L108.185 1.34375ZM102.028 13.9515L104.693 6.45259L106.193 13.9515H102.029H102.028Z" fill="#1534CC"/>
</g>
<defs>
<clipPath id="clip0_1241_1904">
<rect width="60" height="20" fill="white" transform="translate(52 1)"/>
</clipPath>
</defs>
</svg>
