<svg width="80" height="80" viewBox="0 0 80 80" fill="none" xmlns="http://www.w3.org/2000/svg">
<circle cx="40" cy="40" r="40" fill="#CC0066"/>
<path d="M38.475 58.514C37.557 58.514 36.588 58.463 35.568 58.361C34.582 58.259 33.579 58.123 32.559 57.953C31.573 57.749 30.604 57.528 29.652 57.29C28.7 57.052 27.816 56.78 27 56.474L27.918 53.108C28.768 53.38 29.669 53.635 30.621 53.873C31.573 54.111 32.542 54.332 33.528 54.536C34.514 54.706 35.466 54.842 36.384 54.944C37.336 55.012 38.22 55.046 39.036 55.046C41.824 55.046 43.881 54.604 45.207 53.72C46.533 52.802 47.196 51.476 47.196 49.742C47.196 48.824 46.992 47.991 46.584 47.243C46.21 46.495 45.632 45.815 44.85 45.203C44.068 44.557 43.082 43.962 41.892 43.418C40.702 42.84 39.308 42.245 37.71 41.633C35.636 40.851 33.885 39.967 32.457 38.981C31.063 37.961 30.009 36.788 29.295 35.462C28.581 34.102 28.224 32.538 28.224 30.77C28.224 28.832 28.7 27.2 29.652 25.874C30.604 24.548 31.964 23.545 33.732 22.865C35.5 22.151 37.625 21.794 40.107 21.794C41.263 21.794 42.436 21.862 43.626 21.998C44.816 22.134 45.972 22.321 47.094 22.559C48.216 22.763 49.219 23.035 50.103 23.375L49.236 26.741C48.386 26.469 47.451 26.231 46.431 26.027C45.411 25.823 44.374 25.67 43.32 25.568C42.266 25.432 41.28 25.364 40.362 25.364C37.812 25.364 35.874 25.823 34.548 26.741C33.256 27.625 32.61 28.9 32.61 30.566C32.61 31.484 32.797 32.334 33.171 33.116C33.545 33.864 34.089 34.561 34.803 35.207C35.517 35.819 36.435 36.414 37.557 36.992C38.679 37.536 40.022 38.08 41.586 38.624C43.796 39.372 45.649 40.239 47.145 41.225C48.641 42.177 49.763 43.316 50.511 44.642C51.259 45.968 51.633 47.566 51.633 49.436C51.633 51 51.327 52.36 50.715 53.516C50.103 54.672 49.219 55.624 48.063 56.372C46.941 57.12 45.564 57.664 43.932 58.004C42.334 58.378 40.515 58.548 38.475 58.514ZM38.118 63.359V58.004L41.586 57.749V63.359H38.118ZM38.118 22.457V17H41.586V22.253L38.118 22.457Z" fill="white"/>
</svg>
