<svg width="18" height="18" viewBox="0 0 18 18" fill="none" xmlns="http://www.w3.org/2000/svg">
<path d="M0.75 2C0.75 1.30964 1.30964 0.75 2 0.75H6C6.69036 0.75 7.25 1.30964 7.25 2V6C7.25 6.69036 6.69036 7.25 6 7.25H2C1.30964 7.25 0.75 6.69036 0.75 6V2ZM0.75 12C0.75 11.3096 1.30964 10.75 2 10.75H6C6.69036 10.75 7.25 11.3096 7.25 12V16C7.25 16.6904 6.69036 17.25 6 17.25H2C1.30964 17.25 0.75 16.6904 0.75 16V12ZM10.75 2C10.75 1.30964 11.3096 0.75 12 0.75H16C16.6904 0.75 17.25 1.30964 17.25 2V6C17.25 6.69036 16.6904 7.25 16 7.25H12C11.3096 7.25 10.75 6.69036 10.75 6V2ZM10.75 12C10.75 11.3096 11.3096 10.75 12 10.75H16C16.6904 10.75 17.25 11.3096 17.25 12V16C17.25 16.6904 16.6904 17.25 16 17.25H12C11.3096 17.25 10.75 16.6904 10.75 16V12Z" stroke="#A4A4AE" stroke-width="1.5"/>
</svg>
