<svg width="37" height="30" viewBox="0 0 37 30" fill="none" xmlns="http://www.w3.org/2000/svg">
<rect x="0.75" y="0.75" width="35.5" height="28.5" rx="2.66014" stroke="#A4A4AE" stroke-width="1.5"/>
<ellipse cx="8.22429" cy="9.1131" rx="4.17742" ry="4.27326" fill="#A4A4AE"/>
<path d="M4.77344 22.3232V23.6732C4.77344 24.6149 5.53682 25.3783 6.47851 25.3783H30.52C31.4617 25.3783 32.225 24.6149 32.225 23.6732V17.4395C32.225 16.994 32.0507 16.5662 31.7392 16.2476L25.4305 9.79411C24.7616 9.1099 23.6608 9.1099 22.992 9.79411L15.5411 17.4159C14.8722 18.1001 13.7714 18.1001 13.1026 17.4159L12.2162 16.5092C11.5473 15.825 10.4465 15.825 9.77768 16.5092L5.25925 21.1313C4.94781 21.4499 4.77344 21.8777 4.77344 22.3232Z" fill="#A4A4AE"/>
</svg>
