<svg width="80" height="80" viewBox="0 0 80 80" fill="none" xmlns="http://www.w3.org/2000/svg">
<circle cx="40" cy="40" r="40" fill="#CC0066"/>
<path d="M56.7447 30.0895C56.0529 29.4131 55.1294 29 54.1151 29H25.8849C24.9568 29 24.1048 29.3458 23.4366 29.9228M56.7447 30.0895C57.5164 30.844 58 31.9262 58 33.1284V54.8716C58 57.1516 56.2607 59 54.1151 59H25.8849C23.7393 59 22 57.1516 22 54.8716V33.1284C22 31.8346 22.5601 30.6798 23.4366 29.9228M56.7447 30.0895L42.9161 44.7851C41.399 46.3973 38.9392 46.3973 37.4221 44.7851L23.4366 29.9228" stroke="white" stroke-width="3"/>
</svg>
